<?xml version="1.0" encoding="UTF-8" ?>
<svg version="1.1" width="105" height="23" xmlns="http://www.w3.org/2000/svg" shape-rendering="crispEdges">
<rect x="1" y="0" width="1" height="1" fill="#000000" />
<rect x="2" y="0" width="1" height="1" fill="#000000" />
<rect x="4" y="0" width="1" height="1" fill="#000000" />
<rect x="5" y="0" width="1" height="1" fill="#000000" />
<rect x="6" y="0" width="1" height="1" fill="#000000" />
<rect x="9" y="0" width="1" height="1" fill="#000000" />
<rect x="10" y="0" width="1" height="1" fill="#000000" />
<rect x="11" y="0" width="1" height="1" fill="#000000" />
<rect x="12" y="0" width="1" height="1" fill="#000000" />
<rect x="13" y="0" width="1" height="1" fill="#000000" />
<rect x="15" y="0" width="1" height="1" fill="#000000" />
<rect x="16" y="0" width="1" height="1" fill="#000000" />
<rect x="17" y="0" width="1" height="1" fill="#000000" />
<rect x="18" y="0" width="1" height="1" fill="#000000" />
<rect x="19" y="0" width="1" height="1" fill="#000000" />
<rect x="20" y="0" width="1" height="1" fill="#000000" />
<rect x="22" y="0" width="1" height="1" fill="#000000" />
<rect x="23" y="0" width="1" height="1" fill="#000000" />
<rect x="24" y="0" width="1" height="1" fill="#000000" />
<rect x="25" y="0" width="1" height="1" fill="#000000" />
<rect x="28" y="0" width="1" height="1" fill="#000000" />
<rect x="29" y="0" width="1" height="1" fill="#000000" />
<rect x="30" y="0" width="1" height="1" fill="#000000" />
<rect x="31" y="0" width="1" height="1" fill="#000000" />
<rect x="34" y="0" width="1" height="1" fill="#000000" />
<rect x="35" y="0" width="1" height="1" fill="#000000" />
<rect x="36" y="0" width="1" height="1" fill="#000000" />
<rect x="39" y="0" width="1" height="1" fill="#000000" />
<rect x="40" y="0" width="1" height="1" fill="#000000" />
<rect x="43" y="0" width="1" height="1" fill="#000000" />
<rect x="47" y="0" width="1" height="1" fill="#000000" />
<rect x="48" y="0" width="1" height="1" fill="#000000" />
<rect x="51" y="0" width="1" height="1" fill="#000000" />
<rect x="53" y="0" width="1" height="1" fill="#000000" />
<rect x="54" y="0" width="1" height="1" fill="#000000" />
<rect x="56" y="0" width="1" height="1" fill="#000000" />
<rect x="57" y="0" width="1" height="1" fill="#000000" />
<rect x="58" y="0" width="1" height="1" fill="#000000" />
<rect x="61" y="0" width="1" height="1" fill="#000000" />
<rect x="62" y="0" width="1" height="1" fill="#000000" />
<rect x="64" y="0" width="1" height="1" fill="#000000" />
<rect x="65" y="0" width="1" height="1" fill="#000000" />
<rect x="66" y="0" width="1" height="1" fill="#000000" />
<rect x="69" y="0" width="1" height="1" fill="#000000" />
<rect x="70" y="0" width="1" height="1" fill="#000000" />
<rect x="71" y="0" width="1" height="1" fill="#000000" />
<rect x="72" y="0" width="1" height="1" fill="#000000" />
<rect x="73" y="0" width="1" height="1" fill="#000000" />
<rect x="74" y="0" width="1" height="1" fill="#000000" />
<rect x="75" y="0" width="1" height="1" fill="#000000" />
<rect x="78" y="0" width="1" height="1" fill="#000000" />
<rect x="79" y="0" width="1" height="1" fill="#000000" />
<rect x="82" y="0" width="1" height="1" fill="#000000" />
<rect x="83" y="0" width="1" height="1" fill="#000000" />
<rect x="87" y="0" width="1" height="1" fill="#000000" />
<rect x="88" y="0" width="1" height="1" fill="#000000" />
<rect x="91" y="0" width="1" height="1" fill="#000000" />
<rect x="92" y="0" width="1" height="1" fill="#000000" />
<rect x="95" y="0" width="1" height="1" fill="#000000" />
<rect x="96" y="0" width="1" height="1" fill="#000000" />
<rect x="97" y="0" width="1" height="1" fill="#000000" />
<rect x="98" y="0" width="1" height="1" fill="#000000" />
<rect x="0" y="1" width="1" height="1" fill="#000000" />
<rect x="3" y="1" width="1" height="1" fill="#000000" />
<rect x="4" y="1" width="1" height="1" fill="#000000" />
<rect x="7" y="1" width="1" height="1" fill="#000000" />
<rect x="8" y="1" width="1" height="1" fill="#000000" />
<rect x="11" y="1" width="1" height="1" fill="#000000" />
<rect x="14" y="1" width="1" height="1" fill="#000000" />
<rect x="15" y="1" width="1" height="1" fill="#000000" />
<rect x="18" y="1" width="1" height="1" fill="#000000" />
<rect x="21" y="1" width="1" height="1" fill="#000000" />
<rect x="25" y="1" width="1" height="1" fill="#000000" />
<rect x="28" y="1" width="1" height="1" fill="#000000" />
<rect x="30" y="1" width="1" height="1" fill="#000000" />
<rect x="35" y="1" width="1" height="1" fill="#000000" />
<rect x="36" y="1" width="1" height="1" fill="#000000" />
<rect x="38" y="1" width="1" height="1" fill="#000000" />
<rect x="40" y="1" width="1" height="1" fill="#000000" />
<rect x="43" y="1" width="1" height="1" fill="#000000" />
<rect x="44" y="1" width="1" height="1" fill="#000000" />
<rect x="46" y="1" width="1" height="1" fill="#000000" />
<rect x="47" y="1" width="1" height="1" fill="#000000" />
<rect x="48" y="1" width="1" height="1" fill="#000000" />
<rect x="49" y="1" width="1" height="1" fill="#000000" />
<rect x="51" y="1" width="1" height="1" fill="#000000" />
<rect x="52" y="1" width="1" height="1" fill="#000000" />
<rect x="55" y="1" width="1" height="1" fill="#000000" />
<rect x="56" y="1" width="1" height="1" fill="#000000" />
<rect x="59" y="1" width="1" height="1" fill="#000000" />
<rect x="60" y="1" width="1" height="1" fill="#000000" />
<rect x="63" y="1" width="1" height="1" fill="#000000" />
<rect x="64" y="1" width="1" height="1" fill="#000000" />
<rect x="67" y="1" width="1" height="1" fill="#000000" />
<rect x="68" y="1" width="1" height="1" fill="#000000" />
<rect x="73" y="1" width="1" height="1" fill="#000000" />
<rect x="75" y="1" width="1" height="1" fill="#000000" />
<rect x="78" y="1" width="1" height="1" fill="#000000" />
<rect x="79" y="1" width="1" height="1" fill="#000000" />
<rect x="82" y="1" width="1" height="1" fill="#000000" />
<rect x="83" y="1" width="1" height="1" fill="#000000" />
<rect x="85" y="1" width="1" height="1" fill="#000000" />
<rect x="87" y="1" width="1" height="1" fill="#000000" />
<rect x="88" y="1" width="1" height="1" fill="#000000" />
<rect x="91" y="1" width="1" height="1" fill="#000000" />
<rect x="92" y="1" width="1" height="1" fill="#000000" />
<rect x="95" y="1" width="1" height="1" fill="#000000" />
<rect x="98" y="1" width="1" height="1" fill="#000000" />
<rect x="0" y="2" width="1" height="1" fill="#000000" />
<rect x="1" y="2" width="1" height="1" fill="#000000" />
<rect x="2" y="2" width="1" height="1" fill="#000000" />
<rect x="3" y="2" width="1" height="1" fill="#000000" />
<rect x="4" y="2" width="1" height="1" fill="#000000" />
<rect x="5" y="2" width="1" height="1" fill="#000000" />
<rect x="6" y="2" width="1" height="1" fill="#000000" />
<rect x="7" y="2" width="1" height="1" fill="#000000" />
<rect x="8" y="2" width="1" height="1" fill="#000000" />
<rect x="11" y="2" width="1" height="1" fill="#000000" />
<rect x="14" y="2" width="1" height="1" fill="#000000" />
<rect x="15" y="2" width="1" height="1" fill="#000000" />
<rect x="16" y="2" width="1" height="1" fill="#000000" />
<rect x="17" y="2" width="1" height="1" fill="#000000" />
<rect x="18" y="2" width="1" height="1" fill="#000000" />
<rect x="19" y="2" width="1" height="1" fill="#000000" />
<rect x="20" y="2" width="1" height="1" fill="#000000" />
<rect x="21" y="2" width="1" height="1" fill="#000000" />
<rect x="23" y="2" width="1" height="1" fill="#000000" />
<rect x="24" y="2" width="1" height="1" fill="#000000" />
<rect x="25" y="2" width="1" height="1" fill="#000000" />
<rect x="26" y="2" width="1" height="1" fill="#000000" />
<rect x="27" y="2" width="1" height="1" fill="#000000" />
<rect x="28" y="2" width="1" height="1" fill="#000000" />
<rect x="30" y="2" width="1" height="1" fill="#000000" />
<rect x="35" y="2" width="1" height="1" fill="#000000" />
<rect x="36" y="2" width="1" height="1" fill="#000000" />
<rect x="37" y="2" width="1" height="1" fill="#000000" />
<rect x="40" y="2" width="1" height="1" fill="#000000" />
<rect x="43" y="2" width="1" height="1" fill="#000000" />
<rect x="45" y="2" width="1" height="1" fill="#000000" />
<rect x="47" y="2" width="1" height="1" fill="#000000" />
<rect x="48" y="2" width="1" height="1" fill="#000000" />
<rect x="50" y="2" width="1" height="1" fill="#000000" />
<rect x="51" y="2" width="1" height="1" fill="#000000" />
<rect x="52" y="2" width="1" height="1" fill="#000000" />
<rect x="55" y="2" width="1" height="1" fill="#000000" />
<rect x="56" y="2" width="1" height="1" fill="#000000" />
<rect x="59" y="2" width="1" height="1" fill="#000000" />
<rect x="60" y="2" width="1" height="1" fill="#000000" />
<rect x="63" y="2" width="1" height="1" fill="#000000" />
<rect x="64" y="2" width="1" height="1" fill="#000000" />
<rect x="67" y="2" width="1" height="1" fill="#000000" />
<rect x="69" y="2" width="1" height="1" fill="#000000" />
<rect x="70" y="2" width="1" height="1" fill="#000000" />
<rect x="73" y="2" width="1" height="1" fill="#000000" />
<rect x="75" y="2" width="1" height="1" fill="#000000" />
<rect x="78" y="2" width="1" height="1" fill="#000000" />
<rect x="79" y="2" width="1" height="1" fill="#000000" />
<rect x="81" y="2" width="1" height="1" fill="#000000" />
<rect x="83" y="2" width="1" height="1" fill="#000000" />
<rect x="85" y="2" width="1" height="1" fill="#000000" />
<rect x="87" y="2" width="1" height="1" fill="#000000" />
<rect x="89" y="2" width="1" height="1" fill="#000000" />
<rect x="90" y="2" width="1" height="1" fill="#000000" />
<rect x="93" y="2" width="1" height="1" fill="#000000" />
<rect x="94" y="2" width="1" height="1" fill="#000000" />
<rect x="95" y="2" width="1" height="1" fill="#000000" />
<rect x="97" y="2" width="1" height="1" fill="#000000" />
<rect x="0" y="3" width="1" height="1" fill="#000000" />
<rect x="3" y="3" width="1" height="1" fill="#000000" />
<rect x="4" y="3" width="1" height="1" fill="#000000" />
<rect x="7" y="3" width="1" height="1" fill="#000000" />
<rect x="8" y="3" width="1" height="1" fill="#000000" />
<rect x="11" y="3" width="1" height="1" fill="#000000" />
<rect x="14" y="3" width="1" height="1" fill="#000000" />
<rect x="15" y="3" width="1" height="1" fill="#000000" />
<rect x="18" y="3" width="1" height="1" fill="#000000" />
<rect x="21" y="3" width="1" height="1" fill="#000000" />
<rect x="24" y="3" width="1" height="1" fill="#000000" />
<rect x="25" y="3" width="1" height="1" fill="#000000" />
<rect x="28" y="3" width="1" height="1" fill="#000000" />
<rect x="30" y="3" width="1" height="1" fill="#000000" />
<rect x="32" y="3" width="1" height="1" fill="#000000" />
<rect x="35" y="3" width="1" height="1" fill="#000000" />
<rect x="36" y="3" width="1" height="1" fill="#000000" />
<rect x="38" y="3" width="1" height="1" fill="#000000" />
<rect x="40" y="3" width="1" height="1" fill="#000000" />
<rect x="43" y="3" width="1" height="1" fill="#000000" />
<rect x="47" y="3" width="1" height="1" fill="#000000" />
<rect x="48" y="3" width="1" height="1" fill="#000000" />
<rect x="51" y="3" width="1" height="1" fill="#000000" />
<rect x="52" y="3" width="1" height="1" fill="#000000" />
<rect x="55" y="3" width="1" height="1" fill="#000000" />
<rect x="56" y="3" width="1" height="1" fill="#000000" />
<rect x="57" y="3" width="1" height="1" fill="#000000" />
<rect x="58" y="3" width="1" height="1" fill="#000000" />
<rect x="60" y="3" width="1" height="1" fill="#000000" />
<rect x="63" y="3" width="1" height="1" fill="#000000" />
<rect x="64" y="3" width="1" height="1" fill="#000000" />
<rect x="65" y="3" width="1" height="1" fill="#000000" />
<rect x="66" y="3" width="1" height="1" fill="#000000" />
<rect x="71" y="3" width="1" height="1" fill="#000000" />
<rect x="73" y="3" width="1" height="1" fill="#000000" />
<rect x="75" y="3" width="1" height="1" fill="#000000" />
<rect x="78" y="3" width="1" height="1" fill="#000000" />
<rect x="79" y="3" width="1" height="1" fill="#000000" />
<rect x="81" y="3" width="1" height="1" fill="#000000" />
<rect x="83" y="3" width="1" height="1" fill="#000000" />
<rect x="85" y="3" width="1" height="1" fill="#000000" />
<rect x="87" y="3" width="1" height="1" fill="#000000" />
<rect x="88" y="3" width="1" height="1" fill="#000000" />
<rect x="91" y="3" width="1" height="1" fill="#000000" />
<rect x="95" y="3" width="1" height="1" fill="#000000" />
<rect x="96" y="3" width="1" height="1" fill="#000000" />
<rect x="0" y="4" width="1" height="1" fill="#000000" />
<rect x="3" y="4" width="1" height="1" fill="#000000" />
<rect x="4" y="4" width="1" height="1" fill="#000000" />
<rect x="5" y="4" width="1" height="1" fill="#000000" />
<rect x="6" y="4" width="1" height="1" fill="#000000" />
<rect x="9" y="4" width="1" height="1" fill="#000000" />
<rect x="10" y="4" width="1" height="1" fill="#000000" />
<rect x="11" y="4" width="1" height="1" fill="#000000" />
<rect x="12" y="4" width="1" height="1" fill="#000000" />
<rect x="13" y="4" width="1" height="1" fill="#000000" />
<rect x="15" y="4" width="1" height="1" fill="#000000" />
<rect x="16" y="4" width="1" height="1" fill="#000000" />
<rect x="17" y="4" width="1" height="1" fill="#000000" />
<rect x="18" y="4" width="1" height="1" fill="#000000" />
<rect x="22" y="4" width="1" height="1" fill="#000000" />
<rect x="23" y="4" width="1" height="1" fill="#000000" />
<rect x="24" y="4" width="1" height="1" fill="#000000" />
<rect x="25" y="4" width="1" height="1" fill="#000000" />
<rect x="28" y="4" width="1" height="1" fill="#000000" />
<rect x="29" y="4" width="1" height="1" fill="#000000" />
<rect x="30" y="4" width="1" height="1" fill="#000000" />
<rect x="31" y="4" width="1" height="1" fill="#000000" />
<rect x="33" y="4" width="1" height="1" fill="#000000" />
<rect x="34" y="4" width="1" height="1" fill="#000000" />
<rect x="36" y="4" width="1" height="1" fill="#000000" />
<rect x="39" y="4" width="1" height="1" fill="#000000" />
<rect x="40" y="4" width="1" height="1" fill="#000000" />
<rect x="41" y="4" width="1" height="1" fill="#000000" />
<rect x="42" y="4" width="1" height="1" fill="#000000" />
<rect x="43" y="4" width="1" height="1" fill="#000000" />
<rect x="47" y="4" width="1" height="1" fill="#000000" />
<rect x="48" y="4" width="1" height="1" fill="#000000" />
<rect x="51" y="4" width="1" height="1" fill="#000000" />
<rect x="53" y="4" width="1" height="1" fill="#000000" />
<rect x="54" y="4" width="1" height="1" fill="#000000" />
<rect x="56" y="4" width="1" height="1" fill="#000000" />
<rect x="61" y="4" width="1" height="1" fill="#000000" />
<rect x="62" y="4" width="1" height="1" fill="#000000" />
<rect x="64" y="4" width="1" height="1" fill="#000000" />
<rect x="67" y="4" width="1" height="1" fill="#000000" />
<rect x="68" y="4" width="1" height="1" fill="#000000" />
<rect x="69" y="4" width="1" height="1" fill="#000000" />
<rect x="70" y="4" width="1" height="1" fill="#000000" />
<rect x="73" y="4" width="1" height="1" fill="#000000" />
<rect x="76" y="4" width="1" height="1" fill="#000000" />
<rect x="77" y="4" width="1" height="1" fill="#000000" />
<rect x="80" y="4" width="1" height="1" fill="#000000" />
<rect x="84" y="4" width="1" height="1" fill="#000000" />
<rect x="86" y="4" width="1" height="1" fill="#000000" />
<rect x="88" y="4" width="1" height="1" fill="#000000" />
<rect x="91" y="4" width="1" height="1" fill="#000000" />
<rect x="93" y="4" width="1" height="1" fill="#000000" />
<rect x="94" y="4" width="1" height="1" fill="#000000" />
<rect x="96" y="4" width="1" height="1" fill="#000000" />
<rect x="97" y="4" width="1" height="1" fill="#000000" />
<rect x="98" y="4" width="1" height="1" fill="#000000" />
<rect x="63" y="5" width="1" height="1" fill="#000000" />
<rect x="1" y="6" width="1" height="1" fill="#000000" />
<rect x="2" y="6" width="1" height="1" fill="#000000" />
<rect x="3" y="6" width="1" height="1" fill="#000000" />
<rect x="4" y="6" width="1" height="1" fill="#000000" />
<rect x="9" y="6" width="1" height="1" fill="#000000" />
<rect x="10" y="6" width="1" height="1" fill="#000000" />
<rect x="14" y="6" width="1" height="1" fill="#000000" />
<rect x="16" y="6" width="1" height="1" fill="#000000" />
<rect x="17" y="6" width="1" height="1" fill="#000000" />
<rect x="21" y="6" width="1" height="1" fill="#000000" />
<rect x="23" y="6" width="1" height="1" fill="#000000" />
<rect x="24" y="6" width="1" height="1" fill="#000000" />
<rect x="25" y="6" width="1" height="1" fill="#000000" />
<rect x="26" y="6" width="1" height="1" fill="#000000" />
<rect x="30" y="6" width="1" height="1" fill="#000000" />
<rect x="32" y="6" width="1" height="1" fill="#000000" />
<rect x="33" y="6" width="1" height="1" fill="#000000" />
<rect x="37" y="6" width="1" height="1" fill="#000000" />
<rect x="38" y="6" width="1" height="1" fill="#000000" />
<rect x="39" y="6" width="1" height="1" fill="#000000" />
<rect x="40" y="6" width="1" height="1" fill="#000000" />
<rect x="41" y="6" width="1" height="1" fill="#000000" />
<rect x="43" y="6" width="1" height="1" fill="#000000" />
<rect x="44" y="6" width="1" height="1" fill="#000000" />
<rect x="45" y="6" width="1" height="1" fill="#000000" />
<rect x="48" y="6" width="1" height="1" fill="#000000" />
<rect x="49" y="6" width="1" height="1" fill="#000000" />
<rect x="51" y="6" width="1" height="1" fill="#000000" />
<rect x="52" y="6" width="1" height="1" fill="#000000" />
<rect x="53" y="6" width="1" height="1" fill="#000000" />
<rect x="56" y="6" width="1" height="1" fill="#000000" />
<rect x="57" y="6" width="1" height="1" fill="#000000" />
<rect x="58" y="6" width="1" height="1" fill="#000000" />
<rect x="59" y="6" width="1" height="1" fill="#000000" />
<rect x="61" y="6" width="1" height="1" fill="#000000" />
<rect x="63" y="6" width="1" height="1" fill="#000000" />
<rect x="64" y="6" width="1" height="1" fill="#000000" />
<rect x="65" y="6" width="1" height="1" fill="#000000" />
<rect x="67" y="6" width="1" height="1" fill="#000000" />
<rect x="69" y="6" width="1" height="1" fill="#000000" />
<rect x="72" y="6" width="1" height="1" fill="#000000" />
<rect x="73" y="6" width="1" height="1" fill="#000000" />
<rect x="76" y="6" width="1" height="1" fill="#000000" />
<rect x="77" y="6" width="1" height="1" fill="#000000" />
<rect x="79" y="6" width="1" height="1" fill="#000000" />
<rect x="81" y="6" width="1" height="1" fill="#000000" />
<rect x="82" y="6" width="1" height="1" fill="#000000" />
<rect x="84" y="6" width="1" height="1" fill="#000000" />
<rect x="85" y="6" width="1" height="1" fill="#000000" />
<rect x="88" y="6" width="1" height="1" fill="#000000" />
<rect x="89" y="6" width="1" height="1" fill="#000000" />
<rect x="90" y="6" width="1" height="1" fill="#000000" />
<rect x="91" y="6" width="1" height="1" fill="#000000" />
<rect x="92" y="6" width="1" height="1" fill="#000000" />
<rect x="0" y="7" width="1" height="1" fill="#000000" />
<rect x="3" y="7" width="1" height="1" fill="#000000" />
<rect x="4" y="7" width="1" height="1" fill="#000000" />
<rect x="5" y="7" width="1" height="1" fill="#000000" />
<rect x="6" y="7" width="1" height="1" fill="#000000" />
<rect x="8" y="7" width="1" height="1" fill="#000000" />
<rect x="12" y="7" width="1" height="1" fill="#000000" />
<rect x="13" y="7" width="1" height="1" fill="#000000" />
<rect x="14" y="7" width="1" height="1" fill="#000000" />
<rect x="15" y="7" width="1" height="1" fill="#000000" />
<rect x="17" y="7" width="1" height="1" fill="#000000" />
<rect x="18" y="7" width="1" height="1" fill="#000000" />
<rect x="20" y="7" width="1" height="1" fill="#000000" />
<rect x="22" y="7" width="1" height="1" fill="#000000" />
<rect x="25" y="7" width="1" height="1" fill="#000000" />
<rect x="26" y="7" width="1" height="1" fill="#000000" />
<rect x="27" y="7" width="1" height="1" fill="#000000" />
<rect x="28" y="7" width="1" height="1" fill="#000000" />
<rect x="33" y="7" width="1" height="1" fill="#000000" />
<rect x="36" y="7" width="1" height="1" fill="#000000" />
<rect x="37" y="7" width="1" height="1" fill="#000000" />
<rect x="38" y="7" width="1" height="1" fill="#000000" />
<rect x="40" y="7" width="1" height="1" fill="#000000" />
<rect x="42" y="7" width="1" height="1" fill="#000000" />
<rect x="43" y="7" width="1" height="1" fill="#000000" />
<rect x="46" y="7" width="1" height="1" fill="#000000" />
<rect x="47" y="7" width="1" height="1" fill="#000000" />
<rect x="50" y="7" width="1" height="1" fill="#000000" />
<rect x="51" y="7" width="1" height="1" fill="#000000" />
<rect x="54" y="7" width="1" height="1" fill="#000000" />
<rect x="55" y="7" width="1" height="1" fill="#000000" />
<rect x="58" y="7" width="1" height="1" fill="#000000" />
<rect x="59" y="7" width="1" height="1" fill="#000000" />
<rect x="60" y="7" width="1" height="1" fill="#000000" />
<rect x="62" y="7" width="1" height="1" fill="#000000" />
<rect x="63" y="7" width="1" height="1" fill="#000000" />
<rect x="66" y="7" width="1" height="1" fill="#000000" />
<rect x="67" y="7" width="1" height="1" fill="#000000" />
<rect x="68" y="7" width="1" height="1" fill="#000000" />
<rect x="69" y="7" width="1" height="1" fill="#000000" />
<rect x="72" y="7" width="1" height="1" fill="#000000" />
<rect x="73" y="7" width="1" height="1" fill="#000000" />
<rect x="76" y="7" width="1" height="1" fill="#000000" />
<rect x="77" y="7" width="1" height="1" fill="#000000" />
<rect x="79" y="7" width="1" height="1" fill="#000000" />
<rect x="81" y="7" width="1" height="1" fill="#000000" />
<rect x="83" y="7" width="1" height="1" fill="#000000" />
<rect x="85" y="7" width="1" height="1" fill="#000000" />
<rect x="88" y="7" width="1" height="1" fill="#000000" />
<rect x="91" y="7" width="1" height="1" fill="#000000" />
<rect x="0" y="8" width="1" height="1" fill="#000000" />
<rect x="3" y="8" width="1" height="1" fill="#000000" />
<rect x="4" y="8" width="1" height="1" fill="#000000" />
<rect x="7" y="8" width="1" height="1" fill="#000000" />
<rect x="8" y="8" width="1" height="1" fill="#000000" />
<rect x="11" y="8" width="1" height="1" fill="#000000" />
<rect x="14" y="8" width="1" height="1" fill="#000000" />
<rect x="15" y="8" width="1" height="1" fill="#000000" />
<rect x="16" y="8" width="1" height="1" fill="#000000" />
<rect x="19" y="8" width="1" height="1" fill="#000000" />
<rect x="20" y="8" width="1" height="1" fill="#000000" />
<rect x="21" y="8" width="1" height="1" fill="#000000" />
<rect x="22" y="8" width="1" height="1" fill="#000000" />
<rect x="25" y="8" width="1" height="1" fill="#000000" />
<rect x="26" y="8" width="1" height="1" fill="#000000" />
<rect x="29" y="8" width="1" height="1" fill="#000000" />
<rect x="30" y="8" width="1" height="1" fill="#000000" />
<rect x="32" y="8" width="1" height="1" fill="#000000" />
<rect x="33" y="8" width="1" height="1" fill="#000000" />
<rect x="35" y="8" width="1" height="1" fill="#000000" />
<rect x="37" y="8" width="1" height="1" fill="#000000" />
<rect x="38" y="8" width="1" height="1" fill="#000000" />
<rect x="40" y="8" width="1" height="1" fill="#000000" />
<rect x="42" y="8" width="1" height="1" fill="#000000" />
<rect x="43" y="8" width="1" height="1" fill="#000000" />
<rect x="46" y="8" width="1" height="1" fill="#000000" />
<rect x="47" y="8" width="1" height="1" fill="#000000" />
<rect x="50" y="8" width="1" height="1" fill="#000000" />
<rect x="51" y="8" width="1" height="1" fill="#000000" />
<rect x="54" y="8" width="1" height="1" fill="#000000" />
<rect x="55" y="8" width="1" height="1" fill="#000000" />
<rect x="58" y="8" width="1" height="1" fill="#000000" />
<rect x="59" y="8" width="1" height="1" fill="#000000" />
<rect x="64" y="8" width="1" height="1" fill="#000000" />
<rect x="65" y="8" width="1" height="1" fill="#000000" />
<rect x="67" y="8" width="1" height="1" fill="#000000" />
<rect x="69" y="8" width="1" height="1" fill="#000000" />
<rect x="72" y="8" width="1" height="1" fill="#000000" />
<rect x="73" y="8" width="1" height="1" fill="#000000" />
<rect x="75" y="8" width="1" height="1" fill="#000000" />
<rect x="78" y="8" width="1" height="1" fill="#000000" />
<rect x="80" y="8" width="1" height="1" fill="#000000" />
<rect x="83" y="8" width="1" height="1" fill="#000000" />
<rect x="85" y="8" width="1" height="1" fill="#000000" />
<rect x="88" y="8" width="1" height="1" fill="#000000" />
<rect x="90" y="8" width="1" height="1" fill="#000000" />
<rect x="1" y="9" width="1" height="1" fill="#000000" />
<rect x="2" y="9" width="1" height="1" fill="#000000" />
<rect x="3" y="9" width="1" height="1" fill="#000000" />
<rect x="4" y="9" width="1" height="1" fill="#000000" />
<rect x="7" y="9" width="1" height="1" fill="#000000" />
<rect x="9" y="9" width="1" height="1" fill="#000000" />
<rect x="10" y="9" width="1" height="1" fill="#000000" />
<rect x="11" y="9" width="1" height="1" fill="#000000" />
<rect x="14" y="9" width="1" height="1" fill="#000000" />
<rect x="16" y="9" width="1" height="1" fill="#000000" />
<rect x="17" y="9" width="1" height="1" fill="#000000" />
<rect x="20" y="9" width="1" height="1" fill="#000000" />
<rect x="23" y="9" width="1" height="1" fill="#000000" />
<rect x="24" y="9" width="1" height="1" fill="#000000" />
<rect x="25" y="9" width="1" height="1" fill="#000000" />
<rect x="26" y="9" width="1" height="1" fill="#000000" />
<rect x="29" y="9" width="1" height="1" fill="#000000" />
<rect x="30" y="9" width="1" height="1" fill="#000000" />
<rect x="32" y="9" width="1" height="1" fill="#000000" />
<rect x="33" y="9" width="1" height="1" fill="#000000" />
<rect x="34" y="9" width="1" height="1" fill="#000000" />
<rect x="35" y="9" width="1" height="1" fill="#000000" />
<rect x="37" y="9" width="1" height="1" fill="#000000" />
<rect x="38" y="9" width="1" height="1" fill="#000000" />
<rect x="40" y="9" width="1" height="1" fill="#000000" />
<rect x="42" y="9" width="1" height="1" fill="#000000" />
<rect x="43" y="9" width="1" height="1" fill="#000000" />
<rect x="46" y="9" width="1" height="1" fill="#000000" />
<rect x="48" y="9" width="1" height="1" fill="#000000" />
<rect x="49" y="9" width="1" height="1" fill="#000000" />
<rect x="51" y="9" width="1" height="1" fill="#000000" />
<rect x="52" y="9" width="1" height="1" fill="#000000" />
<rect x="53" y="9" width="1" height="1" fill="#000000" />
<rect x="56" y="9" width="1" height="1" fill="#000000" />
<rect x="57" y="9" width="1" height="1" fill="#000000" />
<rect x="58" y="9" width="1" height="1" fill="#000000" />
<rect x="59" y="9" width="1" height="1" fill="#000000" />
<rect x="62" y="9" width="1" height="1" fill="#000000" />
<rect x="63" y="9" width="1" height="1" fill="#000000" />
<rect x="64" y="9" width="1" height="1" fill="#000000" />
<rect x="67" y="9" width="1" height="1" fill="#000000" />
<rect x="70" y="9" width="1" height="1" fill="#000000" />
<rect x="71" y="9" width="1" height="1" fill="#000000" />
<rect x="72" y="9" width="1" height="1" fill="#000000" />
<rect x="74" y="9" width="1" height="1" fill="#000000" />
<rect x="78" y="9" width="1" height="1" fill="#000000" />
<rect x="80" y="9" width="1" height="1" fill="#000000" />
<rect x="82" y="9" width="1" height="1" fill="#000000" />
<rect x="84" y="9" width="1" height="1" fill="#000000" />
<rect x="86" y="9" width="1" height="1" fill="#000000" />
<rect x="87" y="9" width="1" height="1" fill="#000000" />
<rect x="88" y="9" width="1" height="1" fill="#000000" />
<rect x="89" y="9" width="1" height="1" fill="#000000" />
<rect x="90" y="9" width="1" height="1" fill="#000000" />
<rect x="91" y="9" width="1" height="1" fill="#000000" />
<rect x="92" y="9" width="1" height="1" fill="#000000" />
<rect x="4" y="10" width="1" height="1" fill="#000000" />
<rect x="5" y="10" width="1" height="1" fill="#000000" />
<rect x="6" y="10" width="1" height="1" fill="#000000" />
<rect x="12" y="10" width="1" height="1" fill="#000000" />
<rect x="13" y="10" width="1" height="1" fill="#000000" />
<rect x="14" y="10" width="1" height="1" fill="#000000" />
<rect x="20" y="10" width="1" height="1" fill="#000000" />
<rect x="25" y="10" width="1" height="1" fill="#000000" />
<rect x="26" y="10" width="1" height="1" fill="#000000" />
<rect x="29" y="10" width="1" height="1" fill="#000000" />
<rect x="30" y="10" width="1" height="1" fill="#000000" />
<rect x="32" y="10" width="1" height="1" fill="#000000" />
<rect x="33" y="10" width="1" height="1" fill="#000000" />
<rect x="36" y="10" width="1" height="1" fill="#000000" />
<rect x="37" y="10" width="1" height="1" fill="#000000" />
<rect x="51" y="10" width="1" height="1" fill="#000000" />
<rect x="58" y="10" width="1" height="1" fill="#000000" />
<rect x="68" y="10" width="1" height="1" fill="#000000" />
<rect x="88" y="10" width="1" height="1" fill="#000000" />
<rect x="23" y="11" width="1" height="1" fill="#000000" />
<rect x="24" y="11" width="1" height="1" fill="#000000" />
<rect x="31" y="11" width="1" height="1" fill="#000000" />
<rect x="51" y="11" width="1" height="1" fill="#000000" />
<rect x="58" y="11" width="1" height="1" fill="#000000" />
<rect x="86" y="11" width="1" height="1" fill="#000000" />
<rect x="87" y="11" width="1" height="1" fill="#000000" />
<rect x="1" y="12" width="1" height="1" fill="#000000" />
<rect x="2" y="12" width="1" height="1" fill="#000000" />
<rect x="4" y="12" width="1" height="1" fill="#000000" />
<rect x="5" y="12" width="1" height="1" fill="#000000" />
<rect x="6" y="12" width="1" height="1" fill="#000000" />
<rect x="7" y="12" width="1" height="1" fill="#000000" />
<rect x="8" y="12" width="1" height="1" fill="#000000" />
<rect x="10" y="12" width="1" height="1" fill="#000000" />
<rect x="11" y="12" width="1" height="1" fill="#000000" />
<rect x="12" y="12" width="1" height="1" fill="#000000" />
<rect x="16" y="12" width="1" height="1" fill="#000000" />
<rect x="18" y="12" width="1" height="1" fill="#000000" />
<rect x="19" y="12" width="1" height="1" fill="#000000" />
<rect x="20" y="12" width="1" height="1" fill="#000000" />
<rect x="21" y="12" width="1" height="1" fill="#000000" />
<rect x="23" y="12" width="1" height="1" fill="#000000" />
<rect x="24" y="12" width="1" height="1" fill="#000000" />
<rect x="26" y="12" width="1" height="1" fill="#000000" />
<rect x="27" y="12" width="1" height="1" fill="#000000" />
<rect x="28" y="12" width="1" height="1" fill="#000000" />
<rect x="29" y="12" width="1" height="1" fill="#000000" />
<rect x="31" y="12" width="1" height="1" fill="#000000" />
<rect x="32" y="12" width="1" height="1" fill="#000000" />
<rect x="35" y="12" width="1" height="1" fill="#000000" />
<rect x="36" y="12" width="1" height="1" fill="#000000" />
<rect x="0" y="13" width="1" height="1" fill="#000000" />
<rect x="3" y="13" width="1" height="1" fill="#000000" />
<rect x="5" y="13" width="1" height="1" fill="#000000" />
<rect x="9" y="13" width="1" height="1" fill="#000000" />
<rect x="13" y="13" width="1" height="1" fill="#000000" />
<rect x="15" y="13" width="1" height="1" fill="#000000" />
<rect x="16" y="13" width="1" height="1" fill="#000000" />
<rect x="18" y="13" width="1" height="1" fill="#000000" />
<rect x="22" y="13" width="1" height="1" fill="#000000" />
<rect x="29" y="13" width="1" height="1" fill="#000000" />
<rect x="30" y="13" width="1" height="1" fill="#000000" />
<rect x="33" y="13" width="1" height="1" fill="#000000" />
<rect x="34" y="13" width="1" height="1" fill="#000000" />
<rect x="37" y="13" width="1" height="1" fill="#000000" />
<rect x="0" y="14" width="1" height="1" fill="#000000" />
<rect x="3" y="14" width="1" height="1" fill="#000000" />
<rect x="5" y="14" width="1" height="1" fill="#000000" />
<rect x="7" y="14" width="1" height="1" fill="#000000" />
<rect x="8" y="14" width="1" height="1" fill="#000000" />
<rect x="11" y="14" width="1" height="1" fill="#000000" />
<rect x="12" y="14" width="1" height="1" fill="#000000" />
<rect x="14" y="14" width="1" height="1" fill="#000000" />
<rect x="16" y="14" width="1" height="1" fill="#000000" />
<rect x="18" y="14" width="1" height="1" fill="#000000" />
<rect x="19" y="14" width="1" height="1" fill="#000000" />
<rect x="20" y="14" width="1" height="1" fill="#000000" />
<rect x="22" y="14" width="1" height="1" fill="#000000" />
<rect x="23" y="14" width="1" height="1" fill="#000000" />
<rect x="24" y="14" width="1" height="1" fill="#000000" />
<rect x="28" y="14" width="1" height="1" fill="#000000" />
<rect x="31" y="14" width="1" height="1" fill="#000000" />
<rect x="32" y="14" width="1" height="1" fill="#000000" />
<rect x="35" y="14" width="1" height="1" fill="#000000" />
<rect x="36" y="14" width="1" height="1" fill="#000000" />
<rect x="37" y="14" width="1" height="1" fill="#000000" />
<rect x="0" y="15" width="1" height="1" fill="#000000" />
<rect x="3" y="15" width="1" height="1" fill="#000000" />
<rect x="5" y="15" width="1" height="1" fill="#000000" />
<rect x="6" y="15" width="1" height="1" fill="#000000" />
<rect x="13" y="15" width="1" height="1" fill="#000000" />
<rect x="14" y="15" width="1" height="1" fill="#000000" />
<rect x="15" y="15" width="1" height="1" fill="#000000" />
<rect x="16" y="15" width="1" height="1" fill="#000000" />
<rect x="17" y="15" width="1" height="1" fill="#000000" />
<rect x="21" y="15" width="1" height="1" fill="#000000" />
<rect x="22" y="15" width="1" height="1" fill="#000000" />
<rect x="25" y="15" width="1" height="1" fill="#000000" />
<rect x="27" y="15" width="1" height="1" fill="#000000" />
<rect x="30" y="15" width="1" height="1" fill="#000000" />
<rect x="33" y="15" width="1" height="1" fill="#000000" />
<rect x="37" y="15" width="1" height="1" fill="#000000" />
<rect x="1" y="16" width="1" height="1" fill="#000000" />
<rect x="2" y="16" width="1" height="1" fill="#000000" />
<rect x="5" y="16" width="1" height="1" fill="#000000" />
<rect x="6" y="16" width="1" height="1" fill="#000000" />
<rect x="7" y="16" width="1" height="1" fill="#000000" />
<rect x="8" y="16" width="1" height="1" fill="#000000" />
<rect x="9" y="16" width="1" height="1" fill="#000000" />
<rect x="10" y="16" width="1" height="1" fill="#000000" />
<rect x="11" y="16" width="1" height="1" fill="#000000" />
<rect x="12" y="16" width="1" height="1" fill="#000000" />
<rect x="16" y="16" width="1" height="1" fill="#000000" />
<rect x="18" y="16" width="1" height="1" fill="#000000" />
<rect x="19" y="16" width="1" height="1" fill="#000000" />
<rect x="20" y="16" width="1" height="1" fill="#000000" />
<rect x="23" y="16" width="1" height="1" fill="#000000" />
<rect x="24" y="16" width="1" height="1" fill="#000000" />
<rect x="27" y="16" width="1" height="1" fill="#000000" />
<rect x="31" y="16" width="1" height="1" fill="#000000" />
<rect x="32" y="16" width="1" height="1" fill="#000000" />
<rect x="35" y="16" width="1" height="1" fill="#000000" />
<rect x="36" y="16" width="1" height="1" fill="#000000" />
<rect x="0" y="17" width="1" height="1" fill="#000000" />
<rect x="2" y="17" width="1" height="1" fill="#000000" />
<rect x="5" y="17" width="1" height="1" fill="#000000" />
<rect x="6" y="17" width="1" height="1" fill="#000000" />
<rect x="9" y="17" width="1" height="1" fill="#000000" />
<rect x="10" y="17" width="1" height="1" fill="#000000" />
<rect x="11" y="17" width="1" height="1" fill="#000000" />
<rect x="12" y="17" width="1" height="1" fill="#000000" />
<rect x="14" y="17" width="1" height="1" fill="#000000" />
<rect x="15" y="17" width="1" height="1" fill="#000000" />
<rect x="17" y="17" width="1" height="1" fill="#000000" />
<rect x="18" y="17" width="1" height="1" fill="#000000" />
<rect x="19" y="17" width="1" height="1" fill="#000000" />
<rect x="21" y="17" width="1" height="1" fill="#000000" />
<rect x="23" y="17" width="1" height="1" fill="#000000" />
<rect x="24" y="17" width="1" height="1" fill="#000000" />
<rect x="25" y="17" width="1" height="1" fill="#000000" />
<rect x="28" y="17" width="1" height="1" fill="#000000" />
<rect x="30" y="17" width="1" height="1" fill="#000000" />
<rect x="34" y="17" width="1" height="1" fill="#000000" />
<rect x="36" y="17" width="1" height="1" fill="#000000" />
<rect x="39" y="17" width="1" height="1" fill="#000000" />
<rect x="42" y="17" width="1" height="1" fill="#000000" />
<rect x="43" y="17" width="1" height="1" fill="#000000" />
<rect x="47" y="17" width="1" height="1" fill="#000000" />
<rect x="49" y="17" width="1" height="1" fill="#000000" />
<rect x="51" y="17" width="1" height="1" fill="#000000" />
<rect x="52" y="17" width="1" height="1" fill="#000000" />
<rect x="53" y="17" width="1" height="1" fill="#000000" />
<rect x="54" y="17" width="1" height="1" fill="#000000" />
<rect x="56" y="17" width="1" height="1" fill="#000000" />
<rect x="58" y="17" width="1" height="1" fill="#000000" />
<rect x="59" y="17" width="1" height="1" fill="#000000" />
<rect x="60" y="17" width="1" height="1" fill="#000000" />
<rect x="61" y="17" width="1" height="1" fill="#000000" />
<rect x="62" y="17" width="1" height="1" fill="#000000" />
<rect x="63" y="17" width="1" height="1" fill="#000000" />
<rect x="64" y="17" width="1" height="1" fill="#000000" />
<rect x="67" y="17" width="1" height="1" fill="#000000" />
<rect x="69" y="17" width="1" height="1" fill="#000000" />
<rect x="70" y="17" width="1" height="1" fill="#000000" />
<rect x="73" y="17" width="1" height="1" fill="#000000" />
<rect x="74" y="17" width="1" height="1" fill="#000000" />
<rect x="75" y="17" width="1" height="1" fill="#000000" />
<rect x="76" y="17" width="1" height="1" fill="#000000" />
<rect x="78" y="17" width="1" height="1" fill="#000000" />
<rect x="79" y="17" width="1" height="1" fill="#000000" />
<rect x="80" y="17" width="1" height="1" fill="#000000" />
<rect x="81" y="17" width="1" height="1" fill="#000000" />
<rect x="83" y="17" width="1" height="1" fill="#000000" />
<rect x="84" y="17" width="1" height="1" fill="#000000" />
<rect x="86" y="17" width="1" height="1" fill="#000000" />
<rect x="1" y="18" width="1" height="1" fill="#000000" />
<rect x="5" y="18" width="1" height="1" fill="#000000" />
<rect x="6" y="18" width="1" height="1" fill="#000000" />
<rect x="11" y="18" width="1" height="1" fill="#000000" />
<rect x="12" y="18" width="1" height="1" fill="#000000" />
<rect x="14" y="18" width="1" height="1" fill="#000000" />
<rect x="16" y="18" width="1" height="1" fill="#000000" />
<rect x="20" y="18" width="1" height="1" fill="#000000" />
<rect x="21" y="18" width="1" height="1" fill="#000000" />
<rect x="22" y="18" width="1" height="1" fill="#000000" />
<rect x="26" y="18" width="1" height="1" fill="#000000" />
<rect x="27" y="18" width="1" height="1" fill="#000000" />
<rect x="28" y="18" width="1" height="1" fill="#000000" />
<rect x="29" y="18" width="1" height="1" fill="#000000" />
<rect x="30" y="18" width="1" height="1" fill="#000000" />
<rect x="31" y="18" width="1" height="1" fill="#000000" />
<rect x="33" y="18" width="1" height="1" fill="#000000" />
<rect x="34" y="18" width="1" height="1" fill="#000000" />
<rect x="35" y="18" width="1" height="1" fill="#000000" />
<rect x="39" y="18" width="1" height="1" fill="#000000" />
<rect x="41" y="18" width="1" height="1" fill="#000000" />
<rect x="46" y="18" width="1" height="1" fill="#000000" />
<rect x="48" y="18" width="1" height="1" fill="#000000" />
<rect x="50" y="18" width="1" height="1" fill="#000000" />
<rect x="55" y="18" width="1" height="1" fill="#000000" />
<rect x="56" y="18" width="1" height="1" fill="#000000" />
<rect x="57" y="18" width="1" height="1" fill="#000000" />
<rect x="65" y="18" width="1" height="1" fill="#000000" />
<rect x="66" y="18" width="1" height="1" fill="#000000" />
<rect x="67" y="18" width="1" height="1" fill="#000000" />
<rect x="68" y="18" width="1" height="1" fill="#000000" />
<rect x="71" y="18" width="1" height="1" fill="#000000" />
<rect x="73" y="18" width="1" height="1" fill="#000000" />
<rect x="76" y="18" width="1" height="1" fill="#000000" />
<rect x="78" y="18" width="1" height="1" fill="#000000" />
<rect x="81" y="18" width="1" height="1" fill="#000000" />
<rect x="82" y="18" width="1" height="1" fill="#000000" />
<rect x="85" y="18" width="1" height="1" fill="#000000" />
<rect x="86" y="18" width="1" height="1" fill="#000000" />
<rect x="4" y="19" width="1" height="1" fill="#000000" />
<rect x="7" y="19" width="1" height="1" fill="#000000" />
<rect x="9" y="19" width="1" height="1" fill="#000000" />
<rect x="10" y="19" width="1" height="1" fill="#000000" />
<rect x="18" y="19" width="1" height="1" fill="#000000" />
<rect x="19" y="19" width="1" height="1" fill="#000000" />
<rect x="21" y="19" width="1" height="1" fill="#000000" />
<rect x="22" y="19" width="1" height="1" fill="#000000" />
<rect x="24" y="19" width="1" height="1" fill="#000000" />
<rect x="25" y="19" width="1" height="1" fill="#000000" />
<rect x="26" y="19" width="1" height="1" fill="#000000" />
<rect x="28" y="19" width="1" height="1" fill="#000000" />
<rect x="30" y="19" width="1" height="1" fill="#000000" />
<rect x="32" y="19" width="1" height="1" fill="#000000" />
<rect x="33" y="19" width="1" height="1" fill="#000000" />
<rect x="38" y="19" width="1" height="1" fill="#000000" />
<rect x="42" y="19" width="1" height="1" fill="#000000" />
<rect x="43" y="19" width="1" height="1" fill="#000000" />
<rect x="45" y="19" width="1" height="1" fill="#000000" />
<rect x="49" y="19" width="1" height="1" fill="#000000" />
<rect x="51" y="19" width="1" height="1" fill="#000000" />
<rect x="56" y="19" width="1" height="1" fill="#000000" />
<rect x="58" y="19" width="1" height="1" fill="#000000" />
<rect x="59" y="19" width="1" height="1" fill="#000000" />
<rect x="60" y="19" width="1" height="1" fill="#000000" />
<rect x="65" y="19" width="1" height="1" fill="#000000" />
<rect x="68" y="19" width="1" height="1" fill="#000000" />
<rect x="71" y="19" width="1" height="1" fill="#000000" />
<rect x="72" y="19" width="1" height="1" fill="#000000" />
<rect x="77" y="19" width="1" height="1" fill="#000000" />
<rect x="78" y="19" width="1" height="1" fill="#000000" />
<rect x="81" y="19" width="1" height="1" fill="#000000" />
<rect x="83" y="19" width="1" height="1" fill="#000000" />
<rect x="84" y="19" width="1" height="1" fill="#000000" />
<rect x="86" y="19" width="1" height="1" fill="#000000" />
<rect x="3" y="20" width="1" height="1" fill="#000000" />
<rect x="8" y="20" width="1" height="1" fill="#000000" />
<rect x="10" y="20" width="1" height="1" fill="#000000" />
<rect x="22" y="20" width="1" height="1" fill="#000000" />
<rect x="24" y="20" width="1" height="1" fill="#000000" />
<rect x="26" y="20" width="1" height="1" fill="#000000" />
<rect x="27" y="20" width="1" height="1" fill="#000000" />
<rect x="28" y="20" width="1" height="1" fill="#000000" />
<rect x="29" y="20" width="1" height="1" fill="#000000" />
<rect x="30" y="20" width="1" height="1" fill="#000000" />
<rect x="31" y="20" width="1" height="1" fill="#000000" />
<rect x="34" y="20" width="1" height="1" fill="#000000" />
<rect x="35" y="20" width="1" height="1" fill="#000000" />
<rect x="37" y="20" width="1" height="1" fill="#000000" />
<rect x="41" y="20" width="1" height="1" fill="#000000" />
<rect x="44" y="20" width="1" height="1" fill="#000000" />
<rect x="68" y="20" width="1" height="1" fill="#000000" />
<rect x="71" y="20" width="1" height="1" fill="#000000" />
<rect x="73" y="20" width="1" height="1" fill="#000000" />
<rect x="76" y="20" width="1" height="1" fill="#000000" />
<rect x="78" y="20" width="1" height="1" fill="#000000" />
<rect x="81" y="20" width="1" height="1" fill="#000000" />
<rect x="86" y="20" width="1" height="1" fill="#000000" />
<rect x="3" y="21" width="1" height="1" fill="#000000" />
<rect x="8" y="21" width="1" height="1" fill="#000000" />
<rect x="18" y="21" width="1" height="1" fill="#000000" />
<rect x="21" y="21" width="1" height="1" fill="#000000" />
<rect x="23" y="21" width="1" height="1" fill="#000000" />
<rect x="24" y="21" width="1" height="1" fill="#000000" />
<rect x="25" y="21" width="1" height="1" fill="#000000" />
<rect x="28" y="21" width="1" height="1" fill="#000000" />
<rect x="30" y="21" width="1" height="1" fill="#000000" />
<rect x="32" y="21" width="1" height="1" fill="#000000" />
<rect x="33" y="21" width="1" height="1" fill="#000000" />
<rect x="34" y="21" width="1" height="1" fill="#000000" />
<rect x="37" y="21" width="1" height="1" fill="#000000" />
<rect x="40" y="21" width="1" height="1" fill="#000000" />
<rect x="42" y="21" width="1" height="1" fill="#000000" />
<rect x="43" y="21" width="1" height="1" fill="#000000" />
<rect x="45" y="21" width="1" height="1" fill="#000000" />
<rect x="69" y="21" width="1" height="1" fill="#000000" />
<rect x="70" y="21" width="1" height="1" fill="#000000" />
<rect x="73" y="21" width="1" height="1" fill="#000000" />
<rect x="74" y="21" width="1" height="1" fill="#000000" />
<rect x="75" y="21" width="1" height="1" fill="#000000" />
<rect x="76" y="21" width="1" height="1" fill="#000000" />
<rect x="78" y="21" width="1" height="1" fill="#000000" />
<rect x="79" y="21" width="1" height="1" fill="#000000" />
<rect x="80" y="21" width="1" height="1" fill="#000000" />
<rect x="81" y="21" width="1" height="1" fill="#000000" />
<rect x="86" y="21" width="1" height="1" fill="#000000" />
<rect x="34" y="22" width="1" height="1" fill="#000000" />
</svg>